<svg xmlns="http://www.w3.org/2000/svg" x="0px" y="0px"
width="100" height="100"
viewBox="0,0,256,256"
style="fill:#FFFFFF;">
<g fill="#ffffff" fill-rule="nonzero" stroke="none" stroke-width="1" stroke-linecap="butt" stroke-linejoin="miter" stroke-miterlimit="10" stroke-dasharray="" stroke-dashoffset="0" font-family="none" font-weight="none" font-size="none" text-anchor="none" style="mix-blend-mode: normal"><g transform="scale(8,8)"><path d="M16,4c-6.61558,0 -12,5.38443 -12,12c0,6.61557 5.38442,12 12,12c6.61558,0 12,-5.38443 12,-12c0,-6.61557 -5.38442,-12 -12,-12zM16,6c5.5347,0 10,4.46531 10,10c0,5.53469 -4.4653,10 -10,10c-5.5347,0 -10,-4.46531 -10,-10c0,-5.53469 4.4653,-10 10,-10zM12.70703,11.29297l-1.41406,1.41406l3.29297,3.29297l-3.29297,3.29297l1.41406,1.41406l3.29297,-3.29297l3.29297,3.29297l1.41406,-1.41406l-3.29297,-3.29297l3.29297,-3.29297l-1.41406,-1.41406l-3.29297,3.29297z"></path></g></g>
</svg>