<svg xmlns="http://www.w3.org/2000/svg" x="0px" y="0px"
width="100" height="100"
viewBox="0 0 30 30"
style="fill:#FFFFFF;">
<path d="M 15 3 C 8.3845336 3 3 8.3845336 3 15 C 3 17.554923 3.8185753 19.9167 5.1816406 21.853516 A 1.0002809 1.0002809 0 1 0 6.8183594 20.703125 C 5.6774247 19.081941 5 17.129077 5 15 C 5 9.4654664 9.4654664 5 15 5 C 20.534534 5 25 9.4654664 25 15 C 25 17.129077 24.322575 19.081941 23.181641 20.703125 A 1.0002806 1.0002806 0 0 0 24.818359 21.853516 C 26.181425 19.9167 27 17.554923 27 15 C 27 8.3845336 21.615466 3 15 3 z M 14.984375 12.986328 A 1.0001 1.0001 0 0 0 14 14 L 14 24.585938 L 11.707031 22.292969 A 1.0001 1.0001 0 0 0 10.990234 21.990234 A 1.0001 1.0001 0 0 0 10.292969 23.707031 L 14.205078 27.619141 A 1.0001 1.0001 0 0 0 15.796875 27.617188 L 19.707031 23.707031 A 1.0001 1.0001 0 1 0 18.292969 22.292969 L 16 24.585938 L 16 14 A 1.0001 1.0001 0 0 0 14.984375 12.986328 z"></path>
</svg>