<svg xmlns="http://www.w3.org/2000/svg" x="0px" y="0px"
width="100" height="100"
viewBox="0,0,256,256"
style="fill:#1A1A1A;">
<g fill="#ffffff" fill-rule="nonzero" stroke="none" stroke-width="1" stroke-linecap="butt" stroke-linejoin="miter" stroke-miterlimit="10" stroke-dasharray="" stroke-dashoffset="0" font-family="none" font-weight="none" font-size="none" text-anchor="none" style="mix-blend-mode: normal"><g transform="scale(5.12,5.12)"><path d="M33,0.0625c-0.71875,0 -1.41797,0.30469 -1.96875,0.84375l-0.03125,-0.03125l-5.90625,5.84375c-0.16016,0.09766 -0.28906,0.23828 -0.375,0.40625l-23.9375,23.75c0,0.01172 0,0.01953 0,0.03125c-1.10547,1.10547 -1.10547,2.89453 0,4l3.125,3.09375c0.35156,0.35547 0.91406,0.39453 1.3125,0.09375c0.85938,-0.6875 1.98047,-1.1875 3.09375,-1.1875c2.66016,0 4.6875,2.125 4.6875,4.6875c0,1.16016 -0.42187,2.21484 -1.15625,3.03125c-0.34766,0.40234 -0.32031,1.00781 0.0625,1.375l3.09375,3.09375c1.10547,1.10547 2.89453,1.10547 4,0l23.65625,-23.65625h0.03125c0.38281,-0.08984 0.67578,-0.39453 0.75,-0.78125c0,-0.01172 0,-0.01953 0,-0.03125l5.5625,-5.53125c0.03906,-0.02734 0.05859,-0.0625 0.09375,-0.09375c1.20313,-1.00781 1.19922,-2.83203 0.125,-3.90625l-3.125,-3.09375c-0.35156,-0.35547 -0.91406,-0.39453 -1.3125,-0.09375c-0.85547,0.68359 -1.80859,1.09375 -2.96875,1.09375c-2.66016,0 -4.71875,-2.125 -4.71875,-4.6875c0,-1.16016 0.41016,-2.14453 1.09375,-3c0.30078,-0.39844 0.26172,-0.96094 -0.09375,-1.3125l-3.09375,-3.09375c-0.55078,-0.55078 -1.27344,-0.84375 -2,-0.84375zM33,2.09375c0.22266,0 0.44531,0.07031 0.59375,0.21875l2.5625,2.5625c-0.60937,1 -1.0625,2.14453 -1.0625,3.4375c0,3.63672 2.97656,6.6875 6.71875,6.6875c1.29688,0 2.40625,-0.45312 3.40625,-1.0625l2.5625,2.5625c0.29688,0.29688 0.32031,0.78516 0.03125,1c-0.04297,0.02734 -0.08594,0.05859 -0.125,0.09375l-5.34375,5.34375c-0.20312,-0.18359 -0.47656,-0.27344 -0.75,-0.25c-0.375,0.03516 -0.69531,0.27734 -0.83594,0.62891c-0.13672,0.34766 -0.07031,0.74609 0.17969,1.02734l-23.34375,23.34375c-0.29687,0.29688 -0.89062,0.29688 -1.1875,0l-2.5625,-2.5625c0.67969,-1.04687 1.15625,-2.23437 1.15625,-3.53125c0,-3.63672 -2.94531,-6.6875 -6.6875,-6.6875c-1.33984,0 -2.51562,0.51563 -3.53125,1.15625l-2.5625,-2.5625c-0.29687,-0.29687 -0.29687,-0.89062 0,-1.1875l23.40625,-23.28125c0.38672,0.39844 1.02344,0.40234 1.42188,0.01563c0.39844,-0.38672 0.40234,-1.02344 0.01563,-1.42187l5.34375,-5.3125c0.14844,-0.14844 0.37109,-0.21875 0.59375,-0.21875zM28.96875,10.125l-0.75,0.5l-0.03125,0.90625l0.21875,0.28125l1.375,1.40625l0.875,0.28125l0.71875,-0.53125l0.03125,-0.875l-0.1875,-0.3125l-1.40625,-1.375zM33.15625,14.3125l-0.71875,0.53125l-0.03125,0.875l0.1875,0.3125l1.40625,1.40625l0.84375,0.28125l0.75,-0.53125l0.03125,-0.875l-0.1875,-0.3125l-1.40625,-1.40625zM37.375,18.53125l-0.71875,0.5l-0.03125,0.90625l0.1875,0.28125l1.40625,1.40625l0.84375,0.28125l0.75,-0.5l0.03125,-0.90625l-0.21875,-0.28125l-1.40625,-1.40625z"></path></g></g>
</svg>